#tb 0: 1/44100
#media_type 0: audio
#codec_id 0: pcm_s16le
#sample_rate 0: 44100
#channel_layout_name 0: stereo
0,          0,          0,     4096,    16384, 0xa24bea0f
0,       4096,       4096,     4096,    16384, 0xafd3edf3
0,       8192,       8192,     4096,    16384, 0x3282fbc5
0,      12288,      12288,     4096,    16384, 0x49f5f3a7
0,      16384,      16384,     4096,    16384, 0xb0dbfcc7
0,      20480,      20480,     4096,    16384, 0x1312f5a3
0,      24576,      24576,     4096,    16384, 0x8de2e34d
0,      28672,      28672,     4096,    16384, 0x132af171
0,      32768,      32768,     4096,    16384, 0x9948ea4b
0,      36864,      36864,     4096,    16384, 0xafd3edf3
0,      40960,      40960,     4096,    16384, 0x3083055e
0,      45056,      45056,     4096,    16384, 0x81eacc31
0,      49152,      49152,     4096,    16384, 0x5f7f00d4
0,      53248,      53248,     4096,    16384, 0x8fb1e5b5
0,      57344,      57344,     4096,    16384, 0x1c892384
0,      61440,      61440,     4096,    16384, 0x41adeaf1
0,      65536,      65536,     4096,    16384, 0x2d94db57
0,      69632,      69632,     4096,    16384, 0x8a6cc181
0,      73728,      73728,     4096,    16384, 0x628eeddd
0,      77824,      77824,     4096,    16384, 0xc4c3f16f
0,      81920,      81920,     4096,    16384, 0x44b99beb
0,      86016,      86016,     4096,    16384, 0x7f578df1
0,      90112,      90112,     4096,    16384, 0x4dcc5812
0,      94208,      94208,     4096,    16384, 0x3eaf80d5
0,      98304,      98304,     4096,    16384, 0x9160ce11
0,     102400,     102400,     4096,    16384, 0xbd05467e
0,     106496,     106496,     4096,    16384, 0xb8f2b90d
0,     110592,     110592,     4096,    16384, 0x01072526
0,     114688,     114688,     4096,    16384, 0xaa7b97f6
0,     118784,     118784,     4096,    16384, 0x343b139c
0,     122880,     122880,     4096,    16384, 0xb003019b
0,     126976,     126976,     4096,    16384, 0x30665da2
0,     131072,     131072,     4096,    16384, 0xfd1aacd2
0,     135168,     135168,     4096,    16384, 0x5029e60e
0,     139264,     139264,     4096,    16384, 0xdb500b36
0,     143360,     143360,     4096,    16384, 0xcc4edfff
0,     147456,     147456,     4096,    16384, 0xbbed01e5
0,     151552,     151552,     4096,    16384, 0x1e1cf479
0,     155648,     155648,     4096,    16384, 0x7a7d027c
0,     159744,     159744,     4096,    16384, 0x2ab9f530
0,     163840,     163840,     4096,    16384, 0xbe1dedbb
0,     167936,     167936,     4096,    16384, 0x8354f81e
0,     172032,     172032,     4096,    16384, 0x1222fb5b
0,     176128,     176128,     4096,    16384, 0x49e51589
0,     180224,     180224,     4096,    16384, 0xa92c0137
0,     184320,     184320,     4096,    16384, 0xcd6f9630
0,     188416,     188416,     4096,    16384, 0xb90cf116
0,     192512,     192512,     4096,    16384, 0xb2ebe2ea
0,     196608,     196608,     4096,    16384, 0x4775ddf1
0,     200704,     200704,     4096,    16384, 0x4e9ec0ee
0,     204800,     204800,     4096,    16384, 0x2d71df1c
0,     208896,     208896,     4096,    16384, 0xdcc219c3
0,     212992,     212992,     4096,    16384, 0xa92c0137
0,     217088,     217088,     4096,    16384, 0xcd6f9630
0,     221184,     221184,     4096,    16384, 0xb90cf116
0,     225280,     225280,     4096,    16384, 0xb2ebe2ea
0,     229376,     229376,     4096,    16384, 0x4775ddf1
0,     233472,     233472,     4096,    16384, 0x4e9ec0ee
0,     237568,     237568,     4096,    16384, 0x2d71df1c
0,     241664,     241664,     4096,    16384, 0xdcc219c3
0,     245760,     245760,     4096,    16384, 0xa92c0137
0,     249856,     249856,     4096,    16384, 0xcd6f9630
0,     253952,     253952,     4096,    16384, 0xb90cf116
0,     258048,     258048,     4096,    16384, 0xb2ebe2ea
0,     262144,     262144,     2456,     9824, 0xebff0f44
